<svg width="118" height="40" fill="none" xmlns="http://www.w3.org/2000/svg"><rect width="39.658" height="40" rx="19.829" fill="#52A350"/><path d="M43.256 24.472c0 6.306 4.933 11.153 11.41 11.153 3.518 0 6.521-1.244 8.58-3.517L60.03 28.89c-1.287 1.416-3.26 2.145-5.32 2.145-3.174 0-5.576-1.63-6.434-4.29h15.958c.085-.858.214-1.759.214-2.573 0-6.392-4.16-10.854-10.252-10.854-6.22 0-10.94 4.848-10.94 11.154Zm10.853-6.607c2.874 0 5.148 1.888 5.576 4.934H48.19c.429-2.96 2.96-4.934 5.92-4.934Zm19.077 17.331V23.614c0-3.26 2.66-5.534 5.877-5.534.172 0 .386 0 .558.043v-4.805c-2.746 0-4.976 1.159-6.435 2.874v-2.445h-5.062v21.45h5.062Zm14.746 0V23.614c0-3.26 2.66-5.534 5.877-5.534.172 0 .386 0 .558.043v-4.805c-2.746 0-4.976 1.159-6.435 2.874v-2.445H82.87v21.45h5.062Zm7.522-10.724c0 6.134 4.504 11.153 10.639 11.153 2.702 0 5.19-1.415 6.606-3.174v2.745h5.062V13.747h-5.062v2.66c-1.416-1.673-3.904-3.089-6.606-3.089-6.135 0-10.64 5.02-10.64 11.154Zm11.153-6.092c3.346 0 6.092 2.746 6.092 6.092 0 3.346-2.746 6.091-6.092 6.091-3.346 0-6.091-2.745-6.091-6.091s2.745-6.092 6.091-6.092Z" fill="#52A350"/><path fill-rule="evenodd" clip-rule="evenodd" d="M14.463 14.7v3.814h3.157v7.344c0 4.325 1.647 6.109 5.56 6.109.926 0 2.059-.137 2.848-.343V27.78c-.858.172-1.544.275-2.3.275-1.646 0-2.058-.687-2.058-3.398v-6.143h4.358v-3.813H14.463Z" fill="#fff"/><path d="M16.418 9.032a.855.855 0 0 1 1.394-.03l2.201 2.967a.855.855 0 0 1-.686 1.364h-4.212A.855.855 0 0 1 14.408 12l2.01-2.967Z" fill="#fff"/></svg>